HIERARCHY
ROOT hip
{
  OFFSET 0.00112043 5.09927 -9.65472
  CHANNELS 6 Xposition Yposition Zposition Zrotation Xrotation Yrotation
  JOINT abdomen
  {
    OFFSET 0 -1.186 -1.5018
    CHANNELS 3 Zrotation Xrotation Yrotation
    JOINT abdomen2
    {
      OFFSET 0 9.964 0.2134
      CHANNELS 3 Zrotation Xrotation Yrotation
      JOINT chest
      {
        OFFSET 0 13.134 -3.2573
        CHANNELS 3 Zrotation Xrotation Yrotation
        JOINT neck
        {
          OFFSET 0 20.686 -1.6905
          CHANNELS 3 Zrotation Xrotation Yrotation
          JOINT head
          {
            OFFSET 0 7.238 -0.1237
            CHANNELS 3 Zrotation Xrotation Yrotation
            End Site
            {
              OFFSET 0 0 0
            }
          }
        }
        JOINT lCollar
        {
          OFFSET 1.7069 20.075 5.0056
          CHANNELS 3 Zrotation Xrotation Yrotation
          JOINT lShldr
          {
            OFFSET 13.6458 -0.047 -4.849
            CHANNELS 3 Zrotation Xrotation Yrotation
            JOINT lForeArm
            {
              OFFSET 28.3255 -0.9759 2.2888
              CHANNELS 3 Zrotation Xrotation Yrotation
              JOINT lHand
              {
                OFFSET 22.1583 -0.53 10.8316
                CHANNELS 3 Zrotation Xrotation Yrotation
                JOINT lThumb1
                {
                  OFFSET 0.786 0.112 2.5817
                  CHANNELS 3 Zrotation Xrotation Yrotation
                  JOINT lThumb2
                  {
                    OFFSET 0.3601 -0.878 4.2331
                    CHANNELS 3 Zrotation Xrotation Yrotation
                    JOINT lThumb2_End
                    {
                      OFFSET 1.8127 -1.216 2.2227
                      CHANNELS 3 Zrotation Xrotation Yrotation
                      End Site
                      {
                        OFFSET 0.0181 -0.0122 0.0222
                      }
                    }
                  }
                }
                JOINT lCarpal1
                {
                  OFFSET 0.9571 1.114 1.7695
                  CHANNELS 3 Zrotation Xrotation Yrotation
                  JOINT lIndex1
                  {
                    OFFSET 4.1246 0.487 4.1451
                    CHANNELS 3 Zrotation Xrotation Yrotation
                    JOINT lIndex2
                    {
                      OFFSET 3.4052 -1.454 2.7682
                      CHANNELS 3 Zrotation Xrotation Yrotation
                      JOINT lIndex2_End
                      {
                        OFFSET 1.4531 -1.795 1.2713
                        CHANNELS 3 Zrotation Xrotation Yrotation
                        End Site
                        {
                          OFFSET 0.0145 -0.0179 0.0127
                        }
                      }
                    }
                  }
                  JOINT lMid1
                  {
                    OFFSET 5.6954 0.21 2.1184
                    CHANNELS 3 Zrotation Xrotation Yrotation
                    JOINT lMid2
                    {
                      OFFSET 3.9766 -1.54 2.3863
                      CHANNELS 3 Zrotation Xrotation Yrotation
                      JOINT lMid2_End
                      {
                        OFFSET 1.4042 -1.926 1.125
                        CHANNELS 3 Zrotation Xrotation Yrotation
                        End Site
                        {
                          OFFSET 0.014 -0.0193 0.0113
                        }
                      }
                    }
                  }
                }
                JOINT lCarpal2
                {
                  OFFSET 2.0956 0.66 -0.3894
                  CHANNELS 3 Zrotation Xrotation Yrotation
                  JOINT lRing1
                  {
                    OFFSET 5.0395 -0.09 2.4971
                    CHANNELS 3 Zrotation Xrotation Yrotation
                    JOINT lRing2
                    {
                      OFFSET 3.7921 -1.552 1.4806
                      CHANNELS 3 Zrotation Xrotation Yrotation
                      JOINT lRing2_End
                      {
                        OFFSET 1.4655 -1.808 0.9609
                        CHANNELS 3 Zrotation Xrotation Yrotation
                        End Site
                        {
                          OFFSET 0.0147 -0.0181 0.0096
                        }
                      }
                    }
                  }
                  JOINT lPinky1
                  {
                    OFFSET 4.9141 -1.269 0.3591
                    CHANNELS 3 Zrotation Xrotation Yrotation
                    JOINT lPinky2
                    {
                      OFFSET 3.1477 -1.685 0.8462
                      CHANNELS 3 Zrotation Xrotation Yrotation
                      JOINT lPinky2_End
                      {
                        OFFSET 0.8055 -1.585 0.7955
                        CHANNELS 3 Zrotation Xrotation Yrotation
                        End Site
                        {
                          OFFSET 0.0081 -0.0158 0.008
                        }
                      }
                    }
                  }
                }
              }
            }
          }
        }
        JOINT rCollar
        {
          OFFSET -1.7069 20.075 5.0056
          CHANNELS 3 Zrotation Xrotation Yrotation
          JOINT rShldr
          {
            OFFSET -13.6458 -0.047 -4.849
            CHANNELS 3 Zrotation Xrotation Yrotation
            JOINT rForeArm
            {
              OFFSET -28.3255 -0.9759 2.2888
              CHANNELS 3 Zrotation Xrotation Yrotation
              JOINT rHand
              {
                OFFSET -22.1583 -0.53 10.8316
                CHANNELS 3 Zrotation Xrotation Yrotation
                JOINT rThumb1
                {
                  OFFSET -0.786 0.112 2.5817
                  CHANNELS 3 Zrotation Xrotation Yrotation
                  JOINT rThumb2
                  {
                    OFFSET -0.3601 -0.878 4.2331
                    CHANNELS 3 Zrotation Xrotation Yrotation
                    JOINT rThumb2_End
                    {
                      OFFSET -1.8127 -1.216 2.2227
                      CHANNELS 3 Zrotation Xrotation Yrotation
                      End Site
                      {
                        OFFSET -0.0181 -0.0122 0.0222
                      }
                    }
                  }
                }
                JOINT rCarpal1
                {
                  OFFSET -0.9571 1.114 1.7695
                  CHANNELS 3 Zrotation Xrotation Yrotation
                  JOINT rIndex1
                  {
                    OFFSET -4.1246 0.487 4.1451
                    CHANNELS 3 Zrotation Xrotation Yrotation
                    JOINT rIndex2
                    {
                      OFFSET -3.4052 -1.454 2.7682
                      CHANNELS 3 Zrotation Xrotation Yrotation
                      JOINT rIndex2_End
                      {
                        OFFSET -1.4531 -1.795 1.2713
                        CHANNELS 3 Zrotation Xrotation Yrotation
                        End Site
                        {
                          OFFSET -0.0145 -0.018 0.0127
                        }
                      }
                    }
                  }
                  JOINT rMid1
                  {
                    OFFSET -5.6954 0.21 2.1184
                    CHANNELS 3 Zrotation Xrotation Yrotation
                    JOINT rMid2
                    {
                      OFFSET -3.9766 -1.54 2.3863
                      CHANNELS 3 Zrotation Xrotation Yrotation
                      JOINT rMid2_End
                      {
                        OFFSET -1.4042 -1.926 1.125
                        CHANNELS 3 Zrotation Xrotation Yrotation
                        End Site
                        {
                          OFFSET -0.014 -0.0193 0.0113
                        }
                      }
                    }
                  }
                }
                JOINT rCarpal2
                {
                  OFFSET -2.0956 0.66 -0.3894
                  CHANNELS 3 Zrotation Xrotation Yrotation
                  JOINT rRing1
                  {
                    OFFSET -5.0395 -0.09 2.4971
                    CHANNELS 3 Zrotation Xrotation Yrotation
                    JOINT rRing2
                    {
                      OFFSET -3.7921 -1.552 1.4806
                      CHANNELS 3 Zrotation Xrotation Yrotation
                      JOINT rRing2_End
                      {
                        OFFSET -1.4655 -1.808 0.9609
                        CHANNELS 3 Zrotation Xrotation Yrotation
                        End Site
                        {
                          OFFSET -0.0147 -0.0181 0.0096
                        }
                      }
                    }
                  }
                  JOINT rPinky1
                  {
                    OFFSET -4.9141 -1.269 0.3592
                    CHANNELS 3 Zrotation Xrotation Yrotation
                    JOINT rPinky2
                    {
                      OFFSET -3.1477 -1.685 0.8462
                      CHANNELS 3 Zrotation Xrotation Yrotation
                      JOINT rPinky2_End
                      {
                        OFFSET -0.8055 -1.585 0.7955
                        CHANNELS 3 Zrotation Xrotation Yrotation
                        End Site
                        {
                          OFFSET -0.0081 -0.0158 0.008
                        }
                      }
                    }
                  }
                }
              }
            }
          }
        }
      }
    }
  }
  JOINT lThigh
  {
    OFFSET 8.367 -8.2066 0.5982
    CHANNELS 3 Zrotation Xrotation Yrotation
    JOINT lShin
    {
      OFFSET 2.1923 -43.463 -0.4932
      CHANNELS 3 Zrotation Xrotation Yrotation
      JOINT lFoot
      {
        OFFSET 0.7333 -45.8593 -2.6451
        CHANNELS 3 Zrotation Xrotation Yrotation
        End Site
        {
          OFFSET 2.6618 -4.2699 12.3931
        }
      }
    }
  }
  JOINT rThigh
  {
    OFFSET -8.367 -8.2066 0.5982
    CHANNELS 3 Zrotation Xrotation Yrotation
    JOINT rShin
    {
      OFFSET -2.1923 -43.463 -0.4931
      CHANNELS 3 Zrotation Xrotation Yrotation
      JOINT rFoot
      {
        OFFSET -0.7333 -45.8593 -2.6451
        CHANNELS 3 Zrotation Xrotation Yrotation
        End Site
        {
          OFFSET -2.6618 -4.2699 12.3931
        }
      }
    }
  }
}
MOTION
Frames:	4
Frame Time:	0.0333333
0 91.7903 2.51682 0 0 -0 0 0 -0 0 0 -0 0 0 -0 0 0 -0 0 0 -0 0 0 -0 1.66051 0.0835086 5.75766 -0.0175111 0.895433 15.7816 7.95139e-016 -1.98785e-016 -0 5.46658e-016 -3.97569e-016 -0 5.96354e-016 0 -0 3.97569e-016 1.98785e-016 9.54166e-015 1.49089e-016 -3.97569e-016 -0 6.4605e-016 0 3.18055e-015 5.96354e-016 0 3.18055e-015 8.94531e-016 -1.98785e-016 6.36111e-015 6.4605e-016 0 3.18055e-015 5.96354e-016 0 3.18055e-015 8.94531e-016 -1.98785e-016 6.36111e-015 1.49089e-016 -3.97569e-016 -0 6.4605e-016 0 3.18055e-015 5.96354e-016 0 3.18055e-015 8.94531e-016 -1.98785e-016 6.36111e-015 6.4605e-016 0 3.18055e-015 5.96354e-016 0 3.18055e-015 8.94531e-016 -1.98785e-016 6.36111e-015 0 0 -0 -1.4496 0.0636048 -5.0245 -1.74811 1.20616 -16.8394 -1.19271e-015 1.98785e-016 -3.18055e-015 -3.97569e-016 1.98785e-016 -3.18055e-015 -2.98177e-016 1.98785e-016 -3.18055e-015 -2.98177e-016 3.97569e-016 -0 4.96962e-016 0 -6.36111e-015 -9.93923e-017 3.97569e-016 -0 -8.94531e-016 5.96354e-016 -0 -3.97569e-016 3.97569e-016 -0 -9.93923e-017 3.97569e-016 -0 -8.94531e-016 5.96354e-016 -0 -3.97569e-016 3.97569e-016 -0 4.96962e-016 0 -6.36111e-015 -9.93923e-017 3.97569e-016 -0 -8.94531e-016 5.96354e-016 -0 -3.97569e-016 3.97569e-016 -0 -9.93923e-017 3.97569e-016 -0 -8.94531e-016 5.96354e-016 -0 -3.97569e-016 3.97569e-016 -0 -4.66111 -0.998717 0.12318 0.00986924 1.54847 0.176523 4.65186 -0.572283 -0.254274 4.66111 -0.998765 -0.123176 -0.00986867 1.54869 -0.176537 -4.65186 -0.572453 0.25427 
1.73558 23.8965 23.4555 0 23.9991 -0 0.0682424 17.387 -0.539135 0.34365 34.7724 -1.19032 0.34365 34.7724 -1.19032 -4.27423e-006 -48.0029 -3.32027e-006 -3.49181e-007 -24.0027 -2.33123e-007 37.796 -4.15576 -17.4897 -52.6586 -23.2665 -76.717 -42.969 -22.1825 -61.3344 -48.8607 16.9271 6.80607 4.77083e-015 -6.36111e-015 -9.54166e-015 -3.18055e-015 3.18055e-015 -0 7.06225e-031 6.36111e-015 -6.36111e-015 6.36111e-015 -6.36111e-015 -3.18055e-015 -9.54166e-015 3.18055e-015 3.18055e-015 -1.59028e-015 6.36111e-015 -3.18055e-015 -3.53113e-031 -3.18055e-015 -6.36111e-015 -9.54166e-015 3.18055e-015 3.18055e-015 -1.59028e-015 6.36111e-015 -3.18055e-015 -3.53113e-031 -3.18055e-015 -6.36111e-015 6.36111e-015 -6.36111e-015 -3.18055e-015 -9.54166e-015 3.18055e-015 3.18055e-015 -1.59028e-015 6.36111e-015 -3.18055e-015 -3.53113e-031 -3.18055e-015 -6.36111e-015 -9.54166e-015 3.18055e-015 3.18055e-015 -1.59028e-015 6.36111e-015 -3.18055e-015 -3.53113e-031 -3.18055e-015 -6.36111e-015 -18.3727 -2.31548 8.20994 -9.33503 -20.0009 69.228 47.5068 -33.4488 42.5499 37.0277 20.6362 48.9137 -1.89228e-006 2.42829e-006 2.14903e-007 7.48186e-007 -4.23713e-006 2.23469e-006 -2.46454e-007 8.13989e-008 8.06619e-007 8.82781e-032 3.18055e-015 -1.59028e-015 -1.89228e-006 2.42829e-006 2.14903e-007 7.48186e-007 -4.23713e-006 2.23469e-006 -2.46454e-007 8.13989e-008 8.06619e-007 -1.89228e-006 2.42829e-006 2.14903e-007 7.48186e-007 -4.23713e-006 2.23469e-006 -2.46454e-007 8.13989e-008 8.06619e-007 8.82781e-032 3.18055e-015 -1.59028e-015 -1.89228e-006 2.42829e-006 2.14903e-007 7.48186e-007 -4.23713e-006 2.23469e-006 -2.46454e-007 8.13989e-008 8.06619e-007 -1.89228e-006 2.42829e-006 2.14903e-007 7.48186e-007 -4.23713e-006 2.23469e-006 -2.46454e-007 8.13989e-008 8.06619e-007 63.7833 -8.77988 29.858 25.8103 85.8831 -22.9237 6.08682 2.83282 1.78316 -63.8 -8.77453 -29.8621 -25.8029 85.8818 22.9114 -6.08702 2.83374 -1.78307 
1.7357 24.0019 23.8114 0 23.7213 -0 0.082129 17.4875 -0.551949 0.380129 34.9731 -1.22453 0.380129 34.9731 -1.22453 -1.70716e-005 -48.0032 -1.55777e-005 0.24426 -24.2014 0.133013 38.7604 -2.19766 -17.3076 -52.4251 -24.1319 -77.4068 -42.99 -22.0211 -61.3448 -47.7555 17.7505 5.47626 5.53947e-007 1.52344e-007 -1.58128e-006 1.58128e-006 -2.91889e-007 5.53947e-007 -5.83779e-007 -3.16256e-006 -3.04688e-007 0 3.18055e-015 -0 5.53947e-007 1.52344e-007 -1.58128e-006 1.58128e-006 -2.91889e-007 5.53947e-007 -5.83779e-007 -3.16256e-006 -3.04688e-007 5.53947e-007 1.52344e-007 -1.58128e-006 1.58128e-006 -2.91889e-007 5.53947e-007 -5.83779e-007 -3.16256e-006 -3.04688e-007 0 3.18055e-015 -0 5.53947e-007 1.52344e-007 -1.58128e-006 1.58128e-006 -2.91889e-007 5.53947e-007 -5.83779e-007 -3.16256e-006 -3.04688e-007 5.53947e-007 1.52344e-007 -1.58128e-006 1.58128e-006 -2.91889e-007 5.53947e-007 -5.83779e-007 -3.16256e-006 -3.04688e-007 -18.3471 -2.11843 8.47767 -9.33502 -20.0009 69.228 47.5068 -33.4488 42.5499 37.0277 20.6362 48.9137 1.05934e-030 1.90833e-014 -3.18055e-015 -1.76556e-031 3.18055e-015 3.18055e-015 3.18055e-015 0 -0 2.64834e-031 3.18055e-015 -4.77083e-015 -6.36111e-015 3.18055e-015 6.36111e-015 3.18055e-015 6.36111e-015 3.18055e-015 3.18055e-015 9.54166e-015 1.59028e-015 -6.36111e-015 3.18055e-015 6.36111e-015 3.18055e-015 6.36111e-015 3.18055e-015 3.18055e-015 9.54166e-015 1.59028e-015 2.64834e-031 3.18055e-015 -4.77083e-015 -6.36111e-015 3.18055e-015 6.36111e-015 3.18055e-015 6.36111e-015 3.18055e-015 3.18055e-015 9.54166e-015 1.59028e-015 -6.36111e-015 3.18055e-015 6.36111e-015 3.18055e-015 6.36111e-015 3.18055e-015 3.18055e-015 9.54166e-015 1.59028e-015 63.381 -8.2365 29.4053 21.8201 85.3252 -18.9748 6.01388 2.95281 1.95788 -63.4191 -8.22488 -29.4323 -21.811 85.3249 18.9615 -6.03264 2.95325 -1.93351 
1.73581 24.1075 24.167 0 23.4435 -0 0.0959391 17.5879 -0.564961 0.416662 35.1738 -1.25928 0.416663 35.1738 -1.25928 -2.36391e-005 -48.0034 -1.93642e-005 0.489549 -24.3996 0.26724 39.7236 -0.225025 -17.1577 -52.2013 -25.001 -78.0987 -43.0109 -21.8596 -61.3551 -46.6214 18.5517 4.11905 -3.18055e-015 -3.18055e-015 -0 1.04846e-006 4.89016e-006 1.42558e-006 1.32269e-006 -5.33063e-006 -5.92279e-007 -3.18055e-015 -3.18055e-015 -0 -1.59028e-015 0 1.27222e-014 1.04846e-006 4.89016e-006 1.42558e-006 1.32269e-006 -5.33063e-006 -5.92279e-007 -1.59028e-015 0 1.27222e-014 1.04846e-006 4.89016e-006 1.42558e-006 1.32269e-006 -5.33063e-006 -5.92279e-007 -3.18055e-015 -3.18055e-015 -0 -1.59028e-015 0 1.27222e-014 1.04846e-006 4.89016e-006 1.42558e-006 1.32269e-006 -5.33063e-006 -5.92279e-007 -1.59028e-015 0 1.27222e-014 1.04846e-006 4.89016e-006 1.42558e-006 1.32269e-006 -5.33063e-006 -5.92279e-007 -18.3224 -1.9213 8.74528 -9.33503 -20.0009 69.228 47.5069 -33.4488 42.5499 37.0277 20.6362 48.9137 1.37745e-006 2.85388e-007 1.28894e-006 1.37745e-006 2.85388e-007 1.28894e-006 1.85762e-006 1.17765e-007 -3.28593e-007 1.59028e-015 0 -0 1.37745e-006 2.85388e-007 1.28894e-006 1.37745e-006 2.85388e-007 1.28894e-006 1.85762e-006 1.17765e-007 -3.28593e-007 1.37745e-006 2.85388e-007 1.28894e-006 1.37745e-006 2.85388e-007 1.28894e-006 1.85762e-006 1.17765e-007 -3.28593e-007 1.59028e-015 0 -0 1.37745e-006 2.85388e-007 1.28894e-006 1.37745e-006 2.85388e-007 1.28894e-006 1.85762e-006 1.17765e-007 -3.28593e-007 1.37745e-006 2.85388e-007 1.28894e-006 1.37745e-006 2.85388e-007 1.28894e-006 1.85762e-006 1.17765e-007 -3.28593e-007 62.9827 -7.69032 28.9576 18.6914 84.7495 -15.888 5.94064 3.07275 2.13308 -63.042 -7.67277 -29.0072 -18.679 84.7501 15.8722 -5.97801 3.07282 -2.08441 
